<?xml version="1.0" standalone="no"?>
<!DOCTYPE svg PUBLIC "-//W3C//DTD SVG 20010904//EN"
 "http://www.w3.org/TR/2001/REC-SVG-20010904/DTD/svg10.dtd">
<svg version="1.0" xmlns="http://www.w3.org/2000/svg"
 width="819.000000pt" height="819.000000pt" viewBox="0 0 819.000000 819.000000"
 preserveAspectRatio="xMidYMid meet">

<g transform="translate(0.000000,819.000000) scale(0.100000,-0.100000)"
fill="#000000" stroke="none">
<path d="M3885 8183 c-391 -31 -598 -65 -895 -147 -900 -248 -1714 -827 -2251
-1601 -162 -233 -348 -580 -447 -833 -367 -935 -386 -1941 -54 -2877 283 -798
821 -1503 1517 -1986 233 -162 580 -348 833 -447 935 -367 1941 -386 2877 -54
798 283 1503 821 1986 1517 162 233 348 580 447 833 367 935 386 1941 54 2877
-283 798 -821 1503 -1517 1986 -161 112 -285 185 -490 289 -519 263 -1010 398
-1600 440 -130 9 -366 11 -460 3z m1175 -1450 c31 -21 41 -33 58 -61 14 -26
16 -78 2 -87 -5 -3 -10 -17 -10 -31 0 -13 -4 -24 -10 -24 -5 0 -10 -6 -10 -14
0 -18 -32 -76 -42 -76 -5 0 -8 -11 -8 -25 0 -14 -4 -25 -10 -25 -5 0 -10 -11
-10 -25 0 -14 -4 -25 -10 -25 -5 0 -12 -11 -16 -25 -3 -14 -10 -25 -15 -25 -5
0 -9 -11 -9 -25 0 -14 -4 -25 -10 -25 -5 0 -10 -8 -10 -19 0 -10 -7 -24 -15
-31 -8 -7 -15 -21 -15 -31 0 -11 -4 -19 -10 -19 -5 0 -10 -5 -10 -12 0 -18
-33 -88 -42 -88 -4 0 -8 -11 -8 -25 0 -14 -4 -25 -10 -25 -5 0 -10 -8 -10 -19
0 -10 -7 -24 -15 -31 -8 -7 -15 -21 -15 -31 0 -11 -4 -19 -10 -19 -5 0 -10 -9
-10 -19 0 -11 -4 -23 -10 -26 -5 -3 -10 -15 -10 -26 0 -11 -7 -22 -15 -25 -8
-4 -15 -17 -15 -30 0 -13 -4 -24 -10 -24 -5 0 -10 -9 -10 -19 0 -11 -3 -21 -7
-23 -11 -4 -43 -67 -43 -84 0 -8 -4 -14 -10 -14 -5 0 -10 -8 -10 -17 0 -10 -7
-27 -15 -37 -8 -11 -15 -28 -15 -38 0 -10 -4 -18 -10 -18 -5 0 -10 -9 -10 -20
0 -11 -4 -20 -10 -20 -5 0 -10 -8 -10 -19 0 -10 -7 -24 -15 -31 -8 -7 -15 -21
-15 -31 0 -11 -4 -19 -10 -19 -5 0 -10 -11 -10 -25 0 -14 -4 -25 -9 -25 -5 0
-12 -11 -15 -25 -4 -14 -11 -25 -16 -25 -6 0 -10 -11 -10 -25 0 -14 -4 -25
-10 -25 -5 0 -10 -6 -10 -14 0 -17 -32 -80 -42 -84 -5 -2 -8 -15 -8 -28 0 -13
-4 -24 -10 -24 -5 0 -10 -8 -10 -19 0 -10 -7 -24 -15 -31 -8 -7 -15 -19 -15
-26 0 -8 -4 -14 -10 -14 -5 0 -10 -7 -10 -17 0 -22 -32 -93 -42 -93 -4 0 -8
-9 -8 -20 0 -11 -4 -20 -10 -20 -5 0 -10 -7 -10 -16 0 -15 -23 -44 -35 -44 -4
0 -13 -7 -21 -15 -24 -24 -86 -19 -120 10 -16 14 -32 25 -36 25 -5 0 -8 9 -8
20 0 11 -4 20 -10 20 -5 0 -10 16 -10 35 0 19 5 35 10 35 6 0 10 8 10 19 0 10
7 24 15 31 8 7 15 21 15 31 0 11 5 19 10 19 6 0 10 11 10 25 0 14 4 25 9 25 5
0 12 11 15 25 4 14 11 25 16 25 6 0 10 11 10 25 0 14 5 25 10 25 6 0 10 11 10
25 0 14 4 25 10 25 5 0 12 11 16 25 3 14 10 25 15 25 5 0 9 9 9 20 0 11 5 20
10 20 6 0 10 11 10 24 0 13 7 29 15 36 8 7 15 19 15 26 0 8 5 14 10 14 6 0 10
11 10 25 0 14 5 25 10 25 6 0 10 9 10 19 0 11 7 26 15 35 8 8 15 24 15 35 0
12 3 21 8 21 8 0 42 73 42 90 0 6 5 10 10 10 6 0 10 9 10 20 0 11 5 20 10 20
6 0 10 6 10 14 0 17 32 80 43 84 4 2 7 15 7 28 0 13 5 24 10 24 6 0 10 9 10
20 0 11 7 23 15 26 8 4 15 17 15 30 0 13 5 24 10 24 6 0 10 6 10 13 0 18 28
75 41 82 5 4 9 17 9 31 0 13 5 24 10 24 6 0 10 8 10 19 0 10 7 24 15 31 8 7
15 21 15 31 0 11 5 19 10 19 6 0 10 11 10 25 0 14 4 25 9 25 5 0 12 11 15 25
4 14 11 25 16 25 6 0 10 9 10 20 0 11 5 20 10 20 6 0 10 9 10 20 0 11 11 38
25 60 14 22 25 46 25 55 0 8 5 15 10 15 6 0 10 11 10 25 0 14 4 25 10 25 5 0
12 11 16 25 3 14 10 25 15 25 5 0 9 11 9 25 0 14 5 25 10 25 6 0 10 8 10 19 0
10 7 24 15 31 8 7 15 17 15 22 0 25 67 68 105 68 17 0 42 -8 55 -17z m-1110
-450 c0 -18 5 -33 10 -33 6 0 10 -10 10 -23 0 -38 19 -47 97 -47 84 0 96 -15
38 -46 -19 -10 -35 -22 -35 -26 0 -5 -5 -8 -11 -8 -17 0 -39 -27 -39 -49 0
-12 5 -21 10 -21 6 0 10 -8 10 -17 0 -10 7 -31 15 -47 19 -36 19 -56 0 -56 -8
0 -15 3 -15 8 0 4 -16 16 -35 26 -19 11 -35 22 -35 26 0 4 -11 12 -25 18 -20
9 -30 9 -45 0 -11 -7 -20 -16 -20 -20 0 -5 -5 -8 -10 -8 -10 0 -22 -8 -55 -37
-19 -18 -35 -16 -35 3 0 22 33 118 43 122 10 5 9 32 -1 32 -5 0 -17 8 -28 18
-10 10 -34 27 -51 37 -53 31 -43 45 34 45 76 0 103 16 103 62 0 15 5 28 10 28
6 0 10 13 10 28 0 37 8 44 31 29 12 -8 19 -23 19 -44z m2110 47 c0 -5 6 -10
13 -10 7 0 23 -11 35 -25 17 -20 22 -38 22 -85 0 -33 -4 -60 -10 -60 -5 0 -10
-6 -10 -13 0 -7 -11 -24 -25 -39 -14 -15 -25 -30 -25 -33 0 -4 -6 -12 -12 -19
-28 -29 -58 -66 -58 -72 0 -4 -11 -17 -25 -30 -14 -13 -25 -28 -25 -34 0 -5
-4 -10 -10 -10 -5 0 -10 -5 -10 -11 0 -7 -11 -22 -25 -35 -14 -13 -25 -26 -25
-29 0 -4 -6 -12 -12 -19 -27 -28 -58 -66 -58 -72 0 -3 -6 -12 -12 -19 -28 -31
-38 -44 -38 -50 0 -4 -16 -22 -35 -41 -19 -18 -35 -38 -35 -44 0 -9 -25 -42
-57 -76 -7 -7 -13 -15 -13 -18 0 -3 -9 -16 -19 -28 -11 -13 -29 -33 -39 -46
-11 -12 -30 -38 -43 -57 -13 -19 -27 -35 -31 -35 -5 0 -8 -5 -8 -11 0 -7 -11
-22 -25 -35 -14 -13 -25 -28 -25 -34 0 -5 -4 -10 -10 -10 -5 0 -10 -5 -10 -10
0 -6 -11 -21 -25 -34 -14 -13 -25 -27 -25 -32 0 -5 -16 -26 -35 -46 -19 -20
-35 -40 -35 -45 0 -4 -11 -20 -25 -35 -14 -15 -25 -31 -25 -36 0 -5 -11 -15
-25 -22 -14 -7 -25 -17 -25 -22 0 -4 -24 -8 -52 -8 -44 0 -58 5 -84 28 -16 15
-35 40 -42 55 -15 34 -16 77 -2 77 5 0 12 11 16 25 3 14 10 25 15 25 5 0 9 5
9 11 0 6 16 25 35 43 19 19 35 39 35 45 0 7 11 22 25 35 14 13 25 26 25 30 0
4 6 13 13 20 26 28 57 66 57 72 0 3 6 11 13 18 24 26 57 66 57 71 0 5 33 45
58 71 6 7 12 16 12 20 0 4 11 17 25 30 14 13 25 28 25 34 0 5 5 10 10 10 6 0
10 6 10 14 0 7 11 22 25 32 14 10 25 23 25 27 0 5 6 15 13 22 27 31 37 44 37
51 0 4 16 22 35 41 19 19 35 39 35 44 0 6 6 16 13 23 26 28 57 66 57 72 0 3 6
11 13 18 6 7 26 30 42 51 17 21 38 47 48 57 9 10 17 23 17 28 0 6 5 10 10 10
6 0 10 5 10 11 0 7 11 22 25 35 14 13 25 28 25 34 0 13 77 90 90 90 6 0 10 5
10 10 0 6 20 10 45 10 25 0 45 -4 45 -10z m-700 -112 c17 -17 33 -42 36 -54 6
-22 -22 -84 -38 -84 -4 0 -8 -7 -8 -15 0 -26 -91 -20 -122 8 -57 50 -59 97 -7
148 43 42 98 41 139 -3z m990 -585 c0 -13 5 -23 10 -23 6 0 10 -16 10 -35 0
-19 5 -35 10 -35 6 0 10 -7 10 -15 0 -12 15 -15 79 -15 79 0 112 -12 70 -25
-12 -4 -35 -20 -51 -36 -17 -16 -39 -31 -49 -34 -20 -7 -26 -25 -9 -25 6 0 10
-16 10 -35 0 -19 4 -35 9 -35 11 0 20 -56 10 -71 -5 -8 -14 -5 -30 10 -12 11
-26 21 -29 21 -4 0 -20 11 -36 25 -35 30 -35 30 -64 5 -13 -11 -28 -20 -34
-20 -7 0 -18 -9 -26 -20 -17 -24 -60 -27 -60 -5 0 8 5 15 10 15 6 0 10 13 10
28 0 15 4 32 9 38 12 13 23 64 14 64 -5 0 -24 14 -43 30 -19 17 -43 33 -52 36
-10 3 -18 12 -18 20 0 11 17 14 80 14 76 0 80 1 80 23 0 12 7 31 15 41 8 11
15 30 15 43 0 13 4 23 9 23 5 0 11 10 15 23 5 18 8 20 16 7 5 -8 10 -25 10
-37z m-2428 -85 c28 -31 40 -98 18 -98 -5 0 -10 -6 -10 -13 0 -26 -42 -49 -91
-49 -49 0 -63 8 -86 50 -15 26 -17 92 -3 92 6 0 10 5 10 10 0 26 27 39 79 40
49 0 57 -3 83 -32z m447 -1248 c589 -589 1075 -1079 1080 -1089 8 -15 4 -21
-25 -34 -19 -10 -44 -17 -54 -17 -11 0 -20 -4 -20 -9 0 -5 -14 -13 -32 -16
-18 -4 -39 -11 -48 -15 -43 -22 -197 -80 -212 -80 -10 0 -18 -4 -18 -10 0 -5
-8 -10 -19 -10 -10 0 -44 -11 -75 -25 -31 -14 -65 -25 -76 -25 -11 0 -20 -4
-20 -10 0 -5 -16 -12 -35 -16 -19 -3 -35 -10 -35 -15 0 -5 -9 -9 -19 -9 -11 0
-56 -16 -101 -35 -45 -19 -90 -35 -101 -35 -10 0 -19 -4 -19 -10 0 -5 -7 -10
-15 -10 -17 0 -123 -40 -203 -76 -29 -13 -61 -24 -72 -24 -11 0 -20 -4 -20
-10 0 -5 -8 -10 -17 -10 -10 0 -47 -12 -83 -26 -82 -33 -90 -36 -180 -69 -41
-14 -86 -31 -100 -37 -109 -46 -129 -54 -210 -83 -93 -33 -87 -31 -228 -89
-35 -14 -69 -26 -77 -26 -7 0 -26 -6 -42 -14 -36 -18 -66 -30 -128 -52 -27 -9
-54 -21 -60 -26 -5 -4 -19 -8 -32 -8 -13 0 -23 -4 -23 -10 0 -5 -11 -10 -25
-10 -14 0 -25 -4 -25 -10 0 -5 -7 -10 -16 -10 -8 0 -59 -18 -113 -40 -53 -22
-105 -40 -114 -40 -9 0 -17 -4 -17 -10 0 -5 -9 -10 -20 -10 -11 0 -45 -11 -76
-25 -31 -14 -65 -25 -75 -25 -11 0 -19 -4 -19 -10 0 -5 -11 -10 -25 -10 -14 0
-25 -4 -25 -8 0 -8 -100 -42 -125 -42 -7 0 -15 -3 -17 -7 -5 -12 -76 -43 -98
-43 -11 0 -20 -4 -20 -10 0 -5 -8 -10 -19 -10 -10 0 -44 -11 -75 -25 -31 -14
-65 -25 -76 -25 -11 0 -20 -4 -20 -10 0 -5 -8 -10 -17 -10 -10 0 -27 -7 -37
-15 -11 -8 -30 -15 -43 -15 -18 0 -23 6 -23 25 0 14 4 25 10 25 5 0 12 16 16
35 3 19 10 35 15 35 5 0 9 14 9 30 0 17 5 30 10 30 6 0 10 11 10 24 0 13 7 29
15 36 8 7 15 25 15 41 0 16 5 29 10 29 6 0 10 11 10 25 0 14 5 25 10 25 6 0
10 11 10 24 0 14 7 31 15 40 8 8 15 26 15 40 0 14 5 26 10 26 6 0 10 14 10 30
0 17 4 30 10 30 5 0 12 16 16 35 3 19 10 35 15 35 5 0 9 14 9 30 0 17 5 30 10
30 6 0 10 11 10 24 0 13 7 29 15 36 8 7 15 23 15 36 0 13 5 24 10 24 6 0 10
14 10 30 0 17 5 30 10 30 6 0 10 11 10 24 0 13 7 29 15 36 8 7 15 23 15 36 0
13 5 24 10 24 6 0 10 13 10 29 0 17 4 32 9 36 5 3 12 19 16 35 4 17 11 30 16
30 5 0 9 14 9 30 0 17 5 30 10 30 6 0 10 10 10 23 0 12 7 31 15 41 8 11 15 28
15 38 0 10 5 18 10 18 6 0 10 16 10 35 0 19 5 35 10 35 6 0 10 8 10 18 0 10 7
27 15 38 8 10 15 29 15 42 0 12 5 22 10 22 6 0 10 11 10 24 0 14 4 27 9 30 5
3 12 22 15 41 4 19 11 35 16 35 6 0 10 14 10 30 0 17 5 30 10 30 6 0 10 10 10
23 0 12 7 31 15 41 8 11 15 28 15 38 0 10 5 18 10 18 6 0 10 14 10 30 0 17 5
30 10 30 6 0 10 10 10 23 0 13 7 32 15 43 8 10 15 29 15 42 0 12 5 22 10 22 6
0 10 11 10 24 0 14 5 28 10 31 6 3 10 15 10 25 0 10 7 25 15 34 8 8 15 26 15
40 0 14 5 26 10 26 6 0 10 12 10 28 0 15 7 36 15 46 8 11 15 28 15 38 0 10 5
18 10 18 6 0 10 14 10 30 0 17 5 30 10 30 6 0 10 10 10 23 0 13 7 32 15 43 8
10 15 27 15 37 0 9 5 17 10 17 6 0 10 13 10 29 0 17 5 33 10 36 6 3 10 15 10
25 0 10 7 25 15 34 8 8 15 26 15 40 0 14 5 26 10 26 6 0 10 9 10 20 0 22 31
93 43 98 4 2 7 19 7 38 0 19 5 34 10 34 6 0 10 11 10 24 0 13 7 29 15 36 8 7
15 23 15 36 0 13 5 24 10 24 6 0 10 14 10 30 0 17 5 30 10 30 6 0 10 11 10 24
0 14 7 31 15 40 8 8 15 24 15 35 0 12 5 21 10 21 6 0 10 13 10 29 0 17 4 32 9
36 5 3 12 19 16 35 4 17 11 30 16 30 5 0 9 14 9 30 0 17 5 30 10 30 6 0 10 12
10 26 0 14 7 32 15 40 8 9 15 26 15 40 0 13 5 24 10 24 6 0 10 11 10 25 0 18
5 25 19 25 13 0 403 -383 1090 -1070z m1881 752 c0 -5 11 -15 25 -22 14 -7 25
-22 25 -32 0 -10 5 -18 10 -18 6 0 10 -18 10 -40 0 -22 -4 -40 -10 -40 -5 0
-10 -6 -10 -13 0 -15 -41 -54 -86 -83 -28 -18 -43 -30 -86 -66 -12 -10 -27
-18 -35 -18 -7 0 -13 -4 -13 -9 0 -5 -8 -12 -18 -15 -10 -4 -27 -14 -38 -24
-10 -10 -37 -28 -59 -42 -22 -13 -44 -30 -48 -37 -4 -7 -15 -13 -23 -13 -8 0
-28 -13 -45 -30 -17 -16 -40 -32 -50 -35 -11 -4 -19 -11 -19 -16 0 -5 -7 -9
-15 -9 -8 0 -15 -3 -15 -8 0 -4 -16 -16 -35 -26 -19 -11 -35 -23 -35 -27 0 -4
-8 -10 -18 -13 -10 -4 -27 -14 -38 -24 -10 -9 -39 -30 -63 -46 -25 -16 -50
-33 -55 -38 -6 -5 -47 -32 -91 -61 -44 -28 -81 -55 -83 -59 -2 -5 -8 -8 -13
-8 -6 0 -22 -11 -37 -25 -15 -14 -32 -25 -39 -25 -7 0 -13 -4 -13 -8 0 -5 -16
-17 -35 -28 -19 -10 -35 -22 -35 -26 0 -5 -5 -8 -10 -8 -10 0 -22 -8 -55 -37
-7 -7 -18 -13 -23 -13 -6 0 -12 -5 -14 -12 -6 -18 -123 -15 -142 5 -9 8 -16
18 -16 22 0 4 -7 13 -15 21 -33 33 -6 146 38 160 9 3 17 10 17 15 0 5 7 9 15
9 8 0 15 4 15 9 0 5 8 12 18 15 9 3 33 19 52 36 19 17 43 33 53 36 9 3 17 10
17 15 0 5 7 9 15 9 8 0 15 4 15 9 0 5 8 12 18 15 9 3 30 17 46 31 16 14 32 25
36 25 3 0 15 9 27 19 11 10 34 26 51 35 18 9 32 20 32 25 0 5 15 15 33 22 17
7 43 24 57 36 14 13 28 23 32 23 7 0 16 7 70 53 12 9 24 17 28 17 3 0 15 8 26
18 10 10 34 27 52 37 17 11 32 23 32 27 0 4 7 8 15 8 8 0 25 11 38 24 13 13
33 27 45 30 12 4 22 11 22 15 0 4 19 18 43 31 23 13 51 32 61 42 11 10 28 20
38 24 10 3 18 10 18 15 0 5 7 9 15 9 8 0 15 4 15 9 0 5 8 12 18 15 9 3 33 19
52 36 19 17 43 33 53 36 9 3 17 10 17 15 0 5 27 9 60 9 33 0 60 -4 60 -8z
m-1492 -150 c2 -18 7 -32 13 -32 5 0 9 -14 9 -31 0 -47 19 -59 97 -59 81 0
108 -12 72 -30 -12 -7 -32 -21 -43 -31 -11 -11 -23 -19 -26 -19 -4 0 -17 -9
-30 -20 -13 -11 -18 -20 -12 -20 7 0 12 -16 12 -40 0 -22 4 -40 9 -40 14 0 23
-52 11 -64 -8 -8 -13 -8 -18 0 -4 6 -22 19 -39 29 -18 11 -33 22 -33 26 0 4
-10 9 -22 12 -22 6 -73 -19 -112 -55 -24 -22 -56 -24 -56 -3 0 8 5 15 10 15 6
0 10 16 10 35 0 19 4 35 9 35 5 0 12 12 15 26 6 21 1 32 -23 55 -17 16 -35 29
-39 29 -14 0 -52 36 -52 49 0 7 27 11 80 11 71 0 80 2 80 18 0 10 7 27 15 38
8 10 15 31 15 47 0 15 5 27 10 27 6 0 10 7 10 16 0 29 25 8 28 -24z m812 -879
c11 -10 20 -23 20 -30 0 -7 5 -13 10 -13 6 0 10 -15 10 -34 0 -26 -9 -43 -36
-71 -33 -34 -40 -37 -79 -32 -43 4 -75 25 -75 46 0 6 -4 11 -10 11 -5 0 -10
18 -10 40 0 22 5 40 10 40 6 0 10 7 10 16 0 27 31 43 82 44 31 0 55 -6 68 -17z"/>
</g>
</svg>
