
<svg height="800px" width="800px" version="1.1" id="Layer_1" xmlns="http://www.w3.org/2000/svg" xmlns:xlink="http://www.w3.org/1999/xlink" 
	 viewBox="0 0 496.2 496.2" xml:space="preserve">
<path style="fill:#334D5C;" d="M496.2,248.1C496.2,111.1,385.1,0,248.1,0S0,111.1,0,248.1s111.1,248.1,248.1,248.1
	S496.2,385.1,496.2,248.1z"/>
<g>
	<path style="fill:#D69472;" d="M246.8,289l-5.7,64.3c0,0-8,20.8-7.2,31c0.8,10.1,2.8,44.7,2.8,44.7l-3.3,6.9l18.5,25.1
		c-4.3-23.3-1.5-41.1-1.5-41.1l9.8-57.5c0,0,18.6-48.1,20.9-58.4L246.8,289z"/>
	<path style="fill:#D69472;" d="M197.3,259.2c0,0-45.1,8.5-47,18.4c-1.3,6.9-0.6,11.4,23.6,29.3l31.5,24.9l8.1-9.1
		c0,0-10.7-15.2-13.7-20.3l-10.3-13.3l44.8-2.5L197.3,259.2z"/>
</g>
<path style="fill:#AF7054;" d="M166.9,288.1c0,0,9.1,0.6,23,1.5l-0.4-0.5L166.9,288.1z"/>
<path style="fill:#D69472;" d="M204.2,310.6c0,0,9.5,11.4,13.6,12.9c0,0,2,1.4,4.5,0.3c0,0,5.8-4,8.3-2.9c0,0,3.8,0.9,5.3,7.4
	c0.4,1.6,1,3.7,0.3,7.2c0,0-0.1,3.6,3.1,6.3c0,0,6.3,4.2,9,5.7c0,0,5.4,3.1,5.7,7.1c0,0,0.3,3.8-4.1,4.5c-4.5,0.7-21-7.2-26.5-10.8
	c0,0-11.5-8.8-16.5-15l-15.3-15.4L204.2,310.6z"/>
<g>
	<path style="fill:#EED8CB;" d="M222.3,323.8c0,0,5.8-4,8.3-2.9c0,0,3.8,0.9,5.3,7.4c0.4,1.6,1,3.7,0.3,7.2c0,0-0.1,3.6,3.1,6.3
		c0,0,6.3,4.2,9,5.7c0,0,5.4,3.1,5.7,7.1c0,0,0.3,3.8-4.1,4.5c-2.9,0.5-11.2-2.9-18-6.2C228.4,351.2,219.9,324.9,222.3,323.8z"/>
	<path style="fill:#EED8CB;" d="M227.6,342.6c-2.5,1.6-5.7,2.8-7.3,3.3c1.8,1.5,3,2.4,3,2.4s0.1,0,0.1,0.1c2.9-1.1,6.3-2.8,6.3-2.8
		L227.6,342.6z"/>
	<path style="fill:#EED8CB;" d="M225.5,333.4l-1.5-2.6c-6.4,4.2-7.3,9.6-7.3,12c1,0.9,1.9,1.6,2.8,2.3
		C219.6,338,225.5,333.4,225.5,333.4z"/>
</g>
<path style="fill:#DBB7A5;" d="M222.3,323.8c0,0,0.3-0.2,0.8-0.5c0,0,0,5.2,2.8,14.3c2.6,8.5,6.9,15.8,6.9,15.8
	c-0.3-0.1-0.6-0.3-0.9-0.4C228.4,351.2,219.9,324.9,222.3,323.8z"/>
<g>
	<path style="fill:#C1C0BB;" d="M232.5,324.6c0,1.2,1.1,7.6,3.7,10.3c0.5-3.2-0.1-5.2-0.4-6.7c-0.5-2.3-1.4-4-2.2-5.1
		C233.2,323.2,232.5,323.5,232.5,324.6z"/>
	<path style="fill:#C1C0BB;" d="M251,349.5c-1.4-1.2-2.7-2-2.7-2c-0.3-0.1-0.6-0.3-0.9-0.5c-2-1.2-4.9-3.1-6.7-4.2
		c-0.2,0.5-0.2,1.5,1.4,2.4c0,0,4.9,3.1,6,3.7c0,0,2.7,1.7,4.5,2.4C252.1,350.6,251.5,350,251,349.5z"/>
</g>
<path style="fill:#F9E8EC;" d="M232,240.8c0,0,15.5,17.8,55.1,18.9c0,0,70.4,26.3,66.6,40.3c-3.8,14.1-72.9,40.4-201-62
	c-7.6-6.1-6.5-20.6,8.8-16.7L232,240.8z"/>
<path style="fill:#D69472;" d="M236.1,412.3c0,0,0,13.7-0.5,18.1c0,0-1.1,3-3.1,4.7c0,0-0.4,0.3-2.1,1.6c-1.5,1.1,3.3,9.2,7.9,13.6
	c0,0,2.9,3.5,3.8,7.6c0,0,0.8,7.5,0.9,10.6c0,0,0.2,6.2,3.7,8.4c0,0,3.2,2,5.9-1.6c2.7-3.6,1-21.8,0.3-28.4c0,0-2.5-12.1-3.5-21.8
	l-6.6-20.6L236.1,412.3z"/>
<g>
	<path style="fill:#EED8CB;" d="M232.5,435.1c-1.3,0.7-3,1.9-3.2,3.6c0,0-1,4.2,4.1,8.5c1.3,1.1,6.2,6.5,7.2,10.6
		c0,0,2.4,7.6,2.5,10.6c0,0,0.2,6.2,3.7,8.4c0,0,3.2,2,5.9-1.6c1.8-2.4,1.7-10.6,1.2-18.5c-0.1-1-4.8-1.6-6.9-4.2
		C241.1,445.3,233.2,434.7,232.5,435.1z"/>
	<path style="fill:#EED8CB;" d="M244.1,450.7c0,0,5.4-1.2,8.9-2.7c0-0.4-0.1-0.8-0.1-1.2c0,0-0.2-1.1-0.6-2.9
		c-2.9,1.1-7.9,2.5-9.9,3.6L244.1,450.7z"/>
	<path style="fill:#EED8CB;" d="M236,440l1.6,2.6c0,0,7.8-3.1,14.1-1.7c-0.2-1-0.4-2.2-0.6-3.4C247.5,436.9,241.2,437.1,236,440z"/>
</g>
<g>
	<path style="fill:#D69472;" d="M236.6,216.8c0,0-6.1-16.5-11.4-22.6l2.3-22.8c0,0,0.8-2.3,4.8-4.8c0,0,7.9-6.9,8.4-8.9
		c0,0,2.2-8.6-0.4-11.7l19.7-8.4c0,0,0.1,12.3,0.6,17.2c0,0,5.7,9.5,10.6,4.3l1.4-0.7l7.2,17.1l-1.3,16.9L236.6,216.8z"/>
	<path style="fill:#D69472;" d="M272.6,158.4c0,0,19.4-41.7,19.8-42.6l0.9-22.6l11.1-5.8c0,0,1,24.4,0.2,27.4c0,0-15.8,48.1-17.9,52
		c0,0-1.3,5.3-1,10.8L272.6,158.4z"/>
	<path style="fill:#D69472;" d="M304.1,51.2c0,0,0.3-2.4,0.8-3.8c0.3-0.7,0.4-2.3,0.3-4c0-1.6,0.4-3.1,0-3.4
		c-1.1-0.8-2.2,1.1-2.3,1.4c-0.8,2-1.2,4.6-1.2,4.6l-1.1,2.7L304.1,51.2z"/>
	<path style="fill:#D69472;" d="M296.9,42.3c-0.1,1,3.9,5.8,3.9,5.8l2.9-11.4l2.6-6c0.3-1.1,0.6-1.6-0.2-2.1c-0.7-0.5-1.8,0.9-2.5,2
		l-3.3,4.9L296.9,42.3z"/>
	<path style="fill:#D69472;" d="M301.5,57.6c0.6-0.6,2.5-4.6,2.7-7l-2.9-3.2l-0.3-2.3c0-0.9,0.2-2.7,0.2-2.7l-3.6-0.7
		c-0.6,1-0.8,1.5-1,2.8c-0.3,1.7-1,3.6-1.8,9.1c0,0-1.6,22.4-1.4,39.6l11.1-5.8C303.7,75.3,301,58.1,301.5,57.6z"/>
	<path style="fill:#D69472;" d="M227.8,170.9c0,0-40.6,21.6-41.5,22l-22.5,2.1l-5.2,11.4c0,0,24.4-0.4,27.4-1.3
		c0,0,49.3-12.6,53-14.9c0,0,3.2-7.3,8.7-7.2L227.8,170.9z"/>
	<path style="fill:#D69472;" d="M122.4,208c0,0-2.4,0.4-3.8,1c-0.7,0.3-2.3,0.5-3.9,0.6s-3,0.5-3.4,0.1c-0.9-1.1,1-2.3,1.2-2.4
		c2-0.9,4.6-1.5,4.6-1.5l2.7-1.3L122.4,208z"/>
	<path style="fill:#D69472;" d="M113.1,201.3c1-0.1,6,3.6,6,3.6l-11.2,3.5l-5.9,2.9c-1,0.3-1.6,0.7-2.1-0.1
		c-0.5-0.7,0.8-1.9,1.9-2.6l4.8-3.6L113.1,201.3z"/>
	<path style="fill:#D69472;" d="M128.6,205.1c-0.5,0.7-4.5,2.8-6.8,3l-3.3-2.8l-2.3-0.2c-0.9,0.1-2.7,0.3-2.7,0.3l-0.9-3.5
		c1-0.7,1.4-0.9,2.7-1.2c1.7-0.4,3.6-1.1,9-2.3c0,0,22.3-2.8,39.5-3.5l-5.2,11.4C146.4,206.3,129.1,204.5,128.6,205.1z"/>
</g>
<path style="fill:#F9E8EC;" d="M227.2,171.2c3.7,1.2,13,10.4,14,23.9c0,0,0.6,14.3-4.7,20.8c0,0,1.4,21.6-4.5,24.9
	c0,0,9.8,21.2,55.1,18.9c0,0,0-35.8-1.1-47.6c0,0,10.8-11.6,6.9-23.2c0,0-11.9-23.5-19.9-31c-0.1-0.1-1.8,1.1-1.7,1.3
	c2.2,2.9,7.6,11.4,6.4,19c0,0-2.7,7.2-5.7,11.8c0,0-15.6-8.4-23.8-12c-8.2-3.6-19.4-8.5-19.4-8.5S227,171.1,227.2,171.2z"/>
<path style="fill:#D69472;" d="M238.8,101.9c0,0-10.4,1.5-12.7,17.4c-0.2,1.2,0.7,2.6,0.7,3.1c-0.1,0.7-1.5,4.8-1.4,7.1
	c0,0,0.1,13,8.3,15.5c0,0,4.6,1.2,6.6,1.2l19.7-8.5c0,0,0.5-13-3.4-20.1C252.7,110.4,251.6,103.2,238.8,101.9z"/>
<path style="fill:#261A15;" d="M265.5,112.3c-2.4,2.2-7.6,2-10.6-1.3s-2.8-8.6-0.4-10.8c2.4-2.2,6.2-0.6,9.2,2.8
	C266.8,106.3,268,110.1,265.5,112.3z"/>
<path style="fill:#E5D3D8;" d="M253.3,102c0,0,10.5,1.3,11.5,10.8l-1,0.6l-11.4-10.2L253.3,102z"/>
<path style="fill:#38281F;" d="M232.9,104.5c0,0,9.1-8.7,24.6,0.5c0,0,16.4,10.4,2.4,32.6c0,0,0.5-23.9-16.6-28.8
	c-11-3.1-13.3,0.1-14.5,1.1C229,109.9,231,106.1,232.9,104.5z"/>
<ellipse transform="matrix(0.2213 -0.9752 0.9752 0.2213 75.0611 354.187)" style="fill:#D69472;" cx="259.314" cy="130.092" rx="5.1" ry="3.1"/>
<g>
	<path style="fill:#E5D3D8;" d="M292.8,268.4c0,0,49.5,24.1,54.4,28.3l-6.9,4.6L292.8,268.4z"/>
	<polygon style="fill:#E5D3D8;" points="287.1,269.2 329.7,305 316.8,304.8 	"/>
	<polygon style="fill:#E5D3D8;" points="281,268.8 304.3,304.6 291.4,302.8 	"/>
	<polygon style="fill:#E5D3D8;" points="273,267.3 283.5,301.5 269.8,297 	"/>
	<polygon style="fill:#E5D3D8;" points="264.3,264.5 262,295.1 252.1,290.5 	"/>
	<polygon style="fill:#E5D3D8;" points="229.8,243.4 165.1,229.2 176.3,242.5 	"/>
	<polygon style="fill:#E5D3D8;" points="236.5,248.6 184.1,251.1 198.2,260 	"/>
	<polygon style="fill:#E5D3D8;" points="245.2,255.7 210.8,268.2 227.2,277.5 	"/>
	<polygon style="fill:#E5D3D8;" points="254.4,260.4 235,281.7 244.3,286.7 	"/>
</g>
</svg>