<?xml version="1.0" encoding="iso-8859-1"?>
<!-- Uploaded to: SVG Repo, www.svgrepo.com, Generator: SVG Repo Mixer Tools -->
<svg version="1.1" id="Layer_1" xmlns="http://www.w3.org/2000/svg" xmlns:xlink="http://www.w3.org/1999/xlink" 
	 viewBox="0 0 511.995 511.995" xml:space="preserve">
<g>
	
		<rect x="403.661" y="11.901" transform="matrix(-0.7071 -0.7071 0.7071 -0.7071 709.4078 351.2053)" style="fill:#666666;" width="47.56" height="33.558"/>
	
		<rect x="369.549" y="39.02" transform="matrix(-0.7071 -0.7071 0.7071 -0.7071 634.7677 374.5276)" style="fill:#666666;" width="50.803" height="33.558"/>
</g>
<rect x="307.703" y="87.286" transform="matrix(-0.7071 -0.7071 0.7071 -0.7071 424.7137 574.4146)" style="fill:#CACDCD;" width="47.237" height="223.92"/>
<rect x="327.931" y="95.671" transform="matrix(-0.7071 -0.7071 0.7071 -0.7071 433.0896 594.6537)" style="fill:#A9ACAE;" width="23.541" height="223.92"/>
<path style="fill:#FF648D;" d="M69.439,461.263c-0.002-0.002-0.001-0.001-0.003-0.003c-40.091-40.092-78.91-93.31-22.773-149.449
	c14.7-14.699,32.141-21.311,49.01-27.707c15.644-5.931,30.419-11.533,42.08-23.195c15.136-15.136,21.464-27.384,28.163-40.35
	c7.206-13.948,14.657-28.369,33.035-46.748c0.253-0.253,0.519-0.506,0.8-0.76c8.317-7.534,19.926-8.574,29.571-2.646
	c9.858,6.057,14.265,17.13,11.231,28.207l-6.269,22.88c-1.619,5.91,0.754,12.111,5.911,15.423l17.834,11.468
	c5.337,3.433,9.154,8.706,10.742,14.848l0,0l7.308,28.247c1.615,6.24,7.243,10.539,13.686,10.458l28.94-0.366
	c9.244-0.117,17.523,4.602,22.137,12.625c4.595,7.982,4.521,17.456-0.195,25.341c-3.171,5.301-5.913,9.078-8.38,11.546
	c-12.455,12.454-22.765,17.293-32.737,21.974c-9.559,4.486-18.587,8.723-29.749,19.886c-11.66,11.66-17.262,26.436-23.194,42.079
	c-6.396,16.868-13.008,34.311-27.707,49.01c-25.155,25.155-52.54,33.397-81.397,24.497
	C110.851,500.312,87.129,478.952,69.439,461.263z"/>
<path style="fill:#FD387E;" d="M69.439,461.263c-0.002-0.002-0.001-0.001-0.003-0.003
	c34.789-34.789,155.675-154.366,199.337-198.028l0,0l7.308,28.247c1.615,6.24,7.243,10.539,13.686,10.458l28.94-0.366
	c9.244-0.117,17.523,4.602,22.137,12.625c4.595,7.982,4.521,17.456-0.195,25.341c-3.171,5.301-5.913,9.078-8.38,11.546
	c-12.455,12.454-22.765,17.293-32.737,21.974c-9.559,4.486-18.587,8.723-29.749,19.886c-11.66,11.66-17.262,26.436-23.194,42.079
	c-6.396,16.868-13.008,34.311-27.707,49.01c-25.155,25.155-52.54,33.397-81.397,24.497
	C110.851,500.312,87.129,478.952,69.439,461.263z"/>
<path style="fill:#FF648D;" d="M438.186,155.865l-63.143-63.143L465.1,14.987l28.313,70.15L438.186,155.865z"/>
<path style="fill:#FD387E;" d="M438.186,155.865l-31.679-31.679l72.647-72.647l14.258,33.598L438.186,155.865z"/>
<rect x="93.769" y="378.206" transform="matrix(-0.7071 -0.7071 0.7071 -0.7071 -47.6286 770.2418)" style="fill:#666666;" width="83.878" height="33.558"/>
<rect x="129.583" y="393.043" transform="matrix(-0.7071 -0.7071 0.7071 -0.7071 -32.7773 806.0662)" style="fill:#4D4D4D;" width="41.94" height="33.558"/>
<rect x="160.844" y="332.755" transform="matrix(-0.7071 -0.7071 0.7071 -0.7071 62.1339 724.804)" style="fill:#666666;" width="40.669" height="33.558"/>
<rect x="178.209" y="339.945" transform="matrix(-0.7071 -0.7071 0.7071 -0.7071 69.3362 742.1683)" style="fill:#4D4D4D;" width="20.334" height="33.558"/>
</svg>