<svg fill="#ffffff" viewBox="0 0 48 48" enable-background="new 0 0 48 48" id="Layer_1" version="1.1" xml:space="preserve" xmlns="http://www.w3.org/2000/svg" xmlns:xlink="http://www.w3.org/1999/xlink">

<g>

<g>

<path d="M20.453,28.953c-0.064,0-0.13-0.007-0.196-0.02c-0.542-0.107-0.894-0.635-0.785-1.176    c0.036-0.184,0.101-0.389,0.167-0.594c0.022-0.068,0.052-0.157,0.074-0.234c-0.227-0.326-0.45-0.658-0.674-0.99    c-0.916-1.361-1.781-2.647-2.906-3.56c-3.149-2.559-4.392-5.091-3.797-7.741c0.819-3.651,2.993-6.387,5.813-7.32    c2.653-0.876,5.595-0.076,8.293,2.251c1.681,1.449,2.779,3.894,2.799,6.228c0.018,2.036-0.753,3.808-2.227,5.123    c-1.298,1.159-2.43,2.479-3.628,3.876c-0.54,0.63-1.08,1.26-1.636,1.873c-0.002,0.003-0.004,0.005-0.007,0.007    c0.028,0.396-0.101,0.791-0.204,1.109c-0.041,0.126-0.085,0.25-0.107,0.363C21.338,28.623,20.921,28.953,20.453,28.953z     M20.324,8.969c-0.526,0-1.044,0.083-1.547,0.249c-2.147,0.71-3.826,2.9-4.49,5.859c-0.418,1.862,0.569,3.689,3.107,5.75    c1.355,1.102,2.346,2.573,3.304,3.996c0.003,0.004,0.006,0.009,0.009,0.014c0.391-0.443,0.776-0.893,1.162-1.342    c1.188-1.385,2.416-2.818,3.813-4.066c1.304-1.163,1.567-2.607,1.56-3.613c-0.016-1.756-0.861-3.657-2.106-4.73    C23.512,9.684,21.875,8.969,20.324,8.969z"/>

</g>

<g>

<path d="M38.391,41.488c-0.028,0-0.058,0-0.088,0c-5.178-0.082-10.356-0.206-15.534-0.33c-2.826-0.067-5.652-0.135-8.479-0.195    c-0.719-0.017-1.438-0.006-2.158,0.004C10.995,40.982,9.823,41,8.658,40.915c-0.822-0.06-1.576-0.325-2.305-0.582    c-0.291-0.103-0.584-0.206-0.879-0.294c-0.262-0.076-0.479-0.258-0.604-0.499c-0.126-0.241-0.146-0.524-0.059-0.782l4.881-14.323    c0.127-0.374,0.463-0.638,0.856-0.674l7.858-0.713c0.56-0.041,1.036,0.356,1.087,0.906c0.05,0.55-0.355,1.036-0.905,1.086    l-7.213,0.653L7.029,38.451c0.628,0.221,1.222,0.43,1.773,0.469c1.081,0.078,2.158,0.064,3.3,0.047    c0.743-0.01,1.486-0.021,2.23-0.004c2.827,0.061,5.655,0.129,8.483,0.196c5.173,0.124,10.346,0.247,15.519,0.329    c0.556,0.022,0.94-0.111,1.126-0.339c0.189-0.231,0.229-0.662,0.108-1.213l-0.084-0.389c-0.308-1.421-0.626-2.89-1.024-4.294    c-0.595-2.096-1.228-4.179-1.844-6.213l-0.52-1.717c-0.611,0-1.201,0.003-1.774,0.006c-1.759,0.008-3.358,0.015-4.958-0.018    c-1.441-0.029-2.898-0.105-4.309-0.178c-0.619-0.031-1.238-0.063-1.858-0.092c-0.552-0.025-0.979-0.493-0.953-1.044    c0.025-0.552,0.5-0.968,1.045-0.954c0.623,0.028,1.246,0.061,1.87,0.093c1.394,0.072,2.835,0.146,4.246,0.174    c1.584,0.033,3.171,0.027,4.908,0.018c0.805-0.003,1.642-0.007,2.525-0.007c0.441,0,0.831,0.29,0.958,0.712l0.733,2.426    c0.62,2.045,1.256,4.141,1.854,6.247c0.416,1.464,0.741,2.965,1.056,4.417l0.084,0.387c0.322,1.487-0.103,2.4-0.517,2.905    C40.605,40.908,39.825,41.488,38.391,41.488z"/>

</g>

<g>

<path d="M20.966,19.376c-0.801,0-1.622-0.099-2.413-0.296c-0.94-0.234-1.7-0.822-2.139-1.653    c-0.496-0.939-0.557-2.132-0.164-3.191c0.831-2.238,2.854-3.508,5.607-3.481c2.751,0.025,3.26,2.116,3.596,3.499    c0.049,0.198,0.097,0.396,0.15,0.589c0.038,0.137,0.045,0.275,0.026,0.408c0.027,0.194-0.002,0.397-0.096,0.586    c-0.129,0.259-0.24,0.569-0.354,0.878c-0.359,0.983-0.731,2-1.678,2.295C22.727,19.254,21.858,19.376,20.966,19.376z     M21.775,12.754c-1.312,0-2.984,0.385-3.65,2.178c-0.195,0.526-0.173,1.125,0.058,1.562c0.177,0.335,0.456,0.546,0.854,0.646    c1.275,0.318,2.682,0.313,3.784-0.012c0.147-0.187,0.354-0.752,0.481-1.1c0.104-0.286,0.211-0.572,0.324-0.832    c-0.04-0.155-0.079-0.312-0.117-0.469c-0.38-1.564-0.594-1.962-1.671-1.972C21.817,12.755,21.797,12.754,21.775,12.754z"/>

</g>

<g>

<path d="M33.363,33.97c-0.497,0-0.928-0.37-0.991-0.876l-0.419-3.336c-0.068-0.548,0.32-1.047,0.868-1.115    c0.553-0.068,1.048,0.32,1.116,0.868l0.419,3.335c0.069,0.547-0.319,1.047-0.867,1.116C33.446,33.967,33.404,33.97,33.363,33.97z"/>

</g>

<g>

<path d="M28.968,37.591c-0.315,0-0.625-0.148-0.82-0.427c-0.316-0.452-0.207-1.076,0.246-1.393l2.792-1.955    c0.455-0.316,1.077-0.205,1.393,0.246c0.316,0.453,0.206,1.076-0.246,1.393L29.54,37.41    C29.366,37.532,29.166,37.591,28.968,37.591z"/>

</g>

<g>

<path d="M25.264,36.613c-0.153,0-0.31-0.035-0.456-0.111l-3.031-1.557c-0.492-0.252-0.686-0.855-0.434-1.347    c0.251-0.491,0.855-0.687,1.346-0.433l3.033,1.559c0.491,0.252,0.685,0.854,0.433,1.346    C25.977,36.416,25.627,36.613,25.264,36.613z"/>

</g>

<g>

<path d="M11.799,35.637c-0.15,0-0.303-0.034-0.446-0.105c-0.494-0.247-0.694-0.848-0.447-1.342l1.395-2.792    c0.247-0.494,0.848-0.695,1.342-0.448s0.694,0.848,0.447,1.342l-1.395,2.792C12.52,35.434,12.166,35.637,11.799,35.637z"/>

</g>

<g>

<path d="M19.12,33.975c-0.152,0-0.308-0.035-0.453-0.109l-2.781-1.416c-0.492-0.251-0.688-0.854-0.437-1.346    c0.249-0.492,0.851-0.689,1.345-0.437l2.781,1.416c0.492,0.251,0.688,0.853,0.437,1.345C19.836,33.775,19.484,33.975,19.12,33.975    z"/>

</g>

<g>

<path d="M11.239,40.397c-0.553,0-1-0.448-1-1v-2.512c0-0.552,0.447-1,1-1s1,0.448,1,1v2.512    C12.239,39.949,11.792,40.397,11.239,40.397z"/>

</g>

<g>

<path d="M30.223,30.069c-0.105,0-0.212-0.017-0.317-0.052l-2.512-0.838c-0.523-0.176-0.806-0.742-0.631-1.266    s0.741-0.807,1.266-0.631l2.512,0.838c0.523,0.174,0.806,0.741,0.631,1.265C31.031,29.805,30.642,30.069,30.223,30.069z"/>

</g>

</g>

</svg>