
<svg version="1.1" id="_x32_" xmlns="http://www.w3.org/2000/svg" xmlns:xlink="http://www.w3.org/1999/xlink" 
	 viewBox="0 0 512 512"  xml:space="preserve">
<style type="text/css">
	.st0{fill:#000000;}
</style>
<g>
	<path class="st0" d="M200.985,258.023c1.462,5.283,6.919,8.388,12.201,6.926c5.276-1.455,8.381-6.912,6.926-12.195
		c-2.243-8.12-7.056-15.118-13.511-20.104c-6.448-4.994-14.612-7.975-23.368-7.968c-8.714-0.007-16.827,2.938-23.246,7.859
		c-6.426,4.928-11.253,11.846-13.547,19.88c-1.505,5.269,1.556,10.754,6.817,12.252c5.269,1.506,10.762-1.548,12.267-6.817h-0.008
		c1.093-3.821,3.416-7.178,6.528-9.56c3.127-2.381,6.94-3.77,11.189-3.778c4.262,0.008,8.112,1.418,11.239,3.828
		C197.598,250.764,199.928,254.151,200.985,258.023z"/>
	<path class="st0" d="M352.085,232.65c-6.455-4.994-14.618-7.975-23.375-7.968c-8.706-0.007-16.818,2.938-23.245,7.859
		c-6.434,4.928-11.254,11.846-13.548,19.873c-1.512,5.268,1.542,10.761,6.81,12.259c5.269,1.506,10.754-1.548,12.26-6.817
		c1.093-3.821,3.423-7.178,6.535-9.56c3.126-2.381,6.941-3.77,11.188-3.778c4.263,0.008,8.112,1.418,11.239,3.828
		c3.127,2.417,5.45,5.804,6.513,9.676c1.455,5.283,6.919,8.388,12.194,6.926c5.283-1.455,8.388-6.912,6.934-12.195
		C363.346,244.634,358.533,237.636,352.085,232.65z"/>
	<path class="st0" d="M307.853,327.36c-11.819,16.362-30.982,26.552-51.853,26.546c-20.828,0.007-40.02-10.19-51.846-26.552
		c-3.206-4.437-9.408-5.435-13.844-2.229c-4.444,3.213-5.442,9.408-2.228,13.851c15.479,21.429,40.577,34.766,67.918,34.766
		c27.377,0,52.461-13.338,67.934-34.774c3.198-4.444,2.207-10.638-2.237-13.844C317.254,321.918,311.059,322.916,307.853,327.36z"/>
	<path class="st0" d="M494.017,230.848c-10.089-10.11-23.832-16.674-38.994-17.76c-9.452-44.37-33.029-83.5-66.008-112.18
		c-36.033-31.351-83.239-50.37-134.745-50.362c-51.44-0.008-98.582,18.954-134.593,50.232
		c-33.153,28.76-56.825,68.071-66.233,112.658c-13.758,1.795-26.154,8.098-35.461,17.412C6.896,241.92-0.007,257.357,0,274.27
		c-0.007,16.905,6.896,32.356,17.984,43.414c11.073,11.094,26.509,17.991,43.422,17.984c1.194,0,2.33-0.174,3.496-0.246
		c14.785,35.208,38.964,65.452,69.532,87.459c33.702,24.273,75.156,38.58,119.837,38.573c44.869,0.007,86.496-14.438,120.264-38.892
		c30.424-22.022,54.487-52.215,69.185-87.335c2.258,0.26,4.545,0.441,6.883,0.441c16.905,0.007,32.349-6.89,43.415-17.984
		c11.094-11.058,17.991-26.509,17.983-43.414C512.008,257.357,505.11,241.92,494.017,230.848z M284.81,81.593
		c1.013,1.172,2.07,2.497,3.119,4.082c4.48,6.788,8.988,17.455,9.017,34.332c0.008,12.744-2.7,29.128-10.255,49.71
		c-23.86-19.207-37.553-36.909-45.253-51.491c-8.387-15.907-9.9-28.202-9.914-35.324c0-0.919,0.043-1.664,0.08-2.403
		c7.439-0.955,14.966-1.614,22.666-1.614C264.699,78.886,274.888,79.863,284.81,81.593z M226.394,126.165
		c4.292,8.127,10.154,16.884,17.795,26.024c-7.663-3.097-15.342-5.992-22.55-9.046c-12.325-5.196-23.144-11-30.475-18.736
		c-3.684-3.879-6.578-8.214-8.641-13.461c-1.694-4.349-2.779-9.422-3.119-15.4c11.123-5.204,22.897-9.198,35.135-12.006
		C214.619,93.165,216.87,108.153,226.394,126.165z M473.978,297.645c-6.021,6.006-14.2,9.675-23.376,9.69
		c-3.793-0.008-7.433-0.68-10.95-1.91l-13.417-4.718l-4.668,13.432c-12.028,34.6-34.499,64.373-63.642,85.468
		c-29.165,21.089-64.894,33.5-103.655,33.507c-38.602-0.007-74.186-12.31-103.278-33.232
		c-29.079-20.922-51.563-50.471-63.714-84.832l-4.4-12.433l-12.716,3.495c-2.902,0.789-5.804,1.224-8.756,1.224
		c-9.177-0.015-17.354-3.684-23.383-9.69c-6.006-6.029-9.676-14.199-9.683-23.376c0.007-9.176,3.676-17.348,9.683-23.383
		c6.028-6,14.206-9.669,23.383-9.676c0.578-0.007,1.44,0.044,2.634,0.138l13.142,1.035l1.968-13.048
		c6.426-42.561,27.993-80.164,59.097-107.158c7.773-6.737,16.124-12.809,24.982-18.135c0.768,4.805,1.947,9.306,3.597,13.446
		c2.62,6.564,6.281,12.252,10.616,17.108c7.613,8.525,17.13,14.518,27.066,19.432c14.923,7.338,31.054,12.411,44.602,18.736
		c6.774,3.148,12.874,6.564,17.868,10.501c5.016,3.959,8.923,8.351,11.71,13.685c1.499,2.887,4.487,4.653,7.737,4.58
		c3.256-0.079,6.166-1.982,7.526-4.943c14.698-31.842,19.995-56.897,20.003-76.581c0.022-13.331-2.475-24.15-6-32.668
		c23.246,7.396,44.464,19.308,62.469,34.954c31.105,27.066,52.664,64.778,59.01,107.426l2.085,14.076l14.068-2.15
		c1.874-0.282,3.525-0.434,5.016-0.434c9.176,0.007,17.354,3.676,23.376,9.676c6.006,6.035,9.675,14.206,9.69,23.383
		C483.653,283.447,479.984,291.617,473.978,297.645z"/>
</g>
</svg>