
<svg width="800px" height="800px" viewBox="0 0 1024 1024" class="icon"  version="1.1" xmlns="http://www.w3.org/2000/svg"><path d="M490.028445 718.993777l-130.756299-305.097349 0.293855-0.243685L751.382341 87.137761l0.656311 0.786344-391.524534 326.270273 130.455277 304.394964z" fill="#90A4AE" /><path d="M142.215624 283.440127c-37.005263 0-65.303406 28.298143-65.303406 65.303406s28.298143 65.303406 65.303406 65.303406 65.303406-28.298143 65.303406-65.303406-28.298143-65.303406-65.303406-65.303406" fill="#FFBA57" /><path d="M438.255683 749.266994L351.185499 640.429008c-6.530341-6.530341-15.237461-8.707121-23.944582-8.707121h-76.186283c0-4.35356-2.17678-6.530341-4.353561-10.883901l-39.182043-97.954085h54.419505c6.530341 0 13.060681-2.17678 19.591022-6.530341l87.070184-65.303406c15.237461-10.883901 17.414242-30.474923 6.53034-45.712384s-30.474923-17.414242-45.712384-6.53034l-78.363063 58.773065H135.686307h-26.121362c-17.414242 0-32.651703 15.237461-32.651703 32.651703v6.530341c0 8.707121 2.17678 21.767802 8.707121 37.005263l60.949845 130.605788c8.707121 17.414242 23.944582 28.298143 41.358824 32.651703H314.180236l76.186283 100.130866c6.530341 6.530341 15.237461 8.707121 23.944582 8.70712s17.414242-2.17678 23.944582-8.70712c10.883901-13.060681 10.883901-34.828483 0-47.889165z" fill="#FF754C" /><path d="M490.498408 740.559873C470.907386 326.974707 751.709984 65.763131 751.709984 65.763131s76.186283 71.832723 195.909195 565.958756L490.498408 740.559873z" fill="#E0DDDC" /><path d="M745.179644 849.398883c34.828483-58.773065 74.010527-152.37359 74.010527-152.37359H229.286832c0 63.126626 13.060681 117.545107 26.121362 152.37359h489.77145z" fill="#5EC08F" /><path d="M947.619179 827.631081c-65.302382 0-87.070184-43.535604-87.070184-43.535604s-21.767802 43.535604-87.070185 43.535604-87.070184-43.535604-87.070184-43.535604-21.767802 43.535604-87.070184 43.535604-87.070184-43.535604-87.070184-43.535604-21.767802 43.535604-87.070184 43.535604-87.070184-43.535604-87.070184-43.535604-21.767802 43.535604-87.070184 43.535604-87.070184-43.535604-87.070185-43.535604-21.767802 43.535604-87.070184 43.535604V958.236869h870.705937V827.631081h-0.004095z" fill="#7E8CCF" /><path d="M947.619179 871.165661c-65.302382 0-87.070184-43.535604-87.070184-43.535604s-21.767802 43.535604-87.070185 43.535604-87.070184-43.535604-87.070184-43.535604-21.767802 43.535604-87.070184 43.535604-87.070184-43.535604-87.070184-43.535604-21.767802 43.535604-87.070184 43.535604-87.070184-43.535604-87.070184-43.535604-21.767802 43.535604-87.070184 43.535604-87.070184-43.535604-87.070185-43.535604-21.767802 43.535604-87.070184 43.535604v87.070185h870.705937V871.165661h-0.004095z" fill="#C5CAE9" /><path d="M207.51903 522.883901h-43.535604l43.535604 108.837986h43.535604z" fill="#E64A19" /></svg>