
<svg fill="#ffffff" viewBox="0 0 512 512" version="1.1" xml:space="preserve" xmlns="http://www.w3.org/2000/svg" xmlns:xlink="http://www.w3.org/1999/xlink">

<g id="love_letter-letter-mail-love-valantine_day">

<path d="M160.59,119.414c0-4.422,3.582-8,8-8H256c4.418,0,8,3.578,8,8s-3.582,8-8,8h-87.41   C164.172,127.414,160.59,123.836,160.59,119.414z M344,159.414H168c-4.418,0-8,3.578-8,8s3.582,8,8,8h176c4.418,0,8-3.578,8-8   S348.418,159.414,344,159.414z M344,207.414H168c-4.418,0-8,3.578-8,8s3.582,8,8,8h176c4.418,0,8-3.578,8-8   S348.418,207.414,344,207.414z M89.512,208.499L128,230.872V104c0-13.255,10.745-24,24-24h208c13.255,0,24,10.745,24,24v127.168   l38.517-22.307c4.966-2.876,5.391-9.903,0.785-13.327c-4.341-3.228-11.283-8.246-23.302-17.136V104c0-22.091-17.909-40-40-40H152   c-22.091,0-40,17.909-40,40v74.135c-11.974,8.823-18.904,13.815-23.253,17.037C84.134,198.589,84.549,205.614,89.512,208.499z    M440,230.697l0,186.632c0,6.162-6.636,10.033-11.969,6.946c-12.404-7.18-43.897-25.409-132.68-76.799l-11.642,11.783   c61.597,35.662,95.166,55.102,113.68,65.821c7.079,4.098,4.166,14.92-4.014,14.92H118.625c-8.18,0-11.092-10.822-4.013-14.92   c18.514-10.719,52.083-30.159,113.68-65.821l-11.641-11.784c-88.784,51.392-120.277,69.62-132.682,76.8   C78.636,427.362,72,423.491,72,417.329V230.697c0-6.153,6.637-10.009,11.954-6.914c26.687,15.535,90.363,52.507,111.526,64.793   c1.317-3.035,4.279-7.708,4.82-8.404h-0.008c7.27-9.477,18.176-15.328,29.926-16.063c9.215-0.609,18.293,2.008,25.781,7.234   c7.477-5.227,16.555-7.844,25.781-7.234c14.753,0.922,28.501,10.004,34.825,24.416c21.249-12.336,84.789-49.229,111.439-64.743   C433.364,220.688,440,224.544,440,230.697z M215.918,323.961l32.492,32.891c4.086,4.141,11.094,4.141,15.18,0l32.48-32.875   c0.004,0,0.012-0.008,0.016-0.016c15.918-16.013,6.24-42.533-15.305-43.883c-7.164-0.422-14.066,2.219-19.094,7.305   c-3,3.031-8.375,3.031-11.375,0c-5.031-5.086-11.945-7.766-19.094-7.305C209.654,281.43,200.01,307.951,215.918,323.961z"/>

</g>

<g id="Layer_1"/>

</svg>