
<svg fill="#ffffff" version="1.1" id="Layer_1" xmlns="http://www.w3.org/2000/svg" xmlns:xlink="http://www.w3.org/1999/xlink" 
	 viewBox="0 0 256 205" enable-background="new 0 0 256 205" xml:space="preserve">
<path d="M69.939,56.47c4.37,0,7.913,3.543,7.913,7.913s-3.543,7.913-7.913,7.913s-7.913-3.543-7.913-7.913
	S65.569,56.47,69.939,56.47z M57.089,98.403V86.128c0-0.609,0.372-0.981,0.981-0.981c0.609,0,0.981,0.372,0.981,0.981v12.275h21.778
	V86.128c0-0.609,0.372-0.981,0.981-0.981c0.609,0,0.981,0.372,0.981,0.981v12.275h6.932V84.132c0-5.444-4.464-9.874-9.874-9.874
	H60.065c-5.444,0-9.874,4.464-9.874,9.874v14.271H57.089z M69.973,158.1c-12.409,0-22.45,10.041-22.45,22.45
	c0,12.409,10.041,22.45,22.45,22.45c12.409,0,22.45-10.041,22.45-22.45C92.423,168.141,82.382,158.1,69.973,158.1z M69.973,189.149
	c-4.714,0-8.599-3.885-8.599-8.599c0-4.714,3.886-8.599,8.599-8.599c4.714,0,8.599,3.886,8.599,8.599
	C78.572,185.263,74.687,189.149,69.973,189.149z M211.304,157.144c-12.409,0-22.45,10.041-22.45,22.45
	c0,12.409,10.041,22.45,22.45,22.45c12.409,0,22.45-10.041,22.45-22.45C233.754,167.185,223.713,157.144,211.304,157.144z
	 M211.304,188.193c-4.714,0-8.599-3.885-8.599-8.599c0-4.714,3.886-8.599,8.599-8.599c4.714,0,8.599,3.886,8.599,8.599
	C219.903,184.307,216.017,188.193,211.304,188.193z M252.057,159.596h-4.857v-21.369c0-7.184-5.361-12.627-12.627-12.627h-23.312
	c-0.49,0-1.068-0.26-1.394-0.587l-36.328-35.361c-1.633-1.633-3.619-2.823-5.986-2.905h-26.226v89.361h38.853
	c0.898,0,1.779-1.126,1.943-1.943c2.449-14.042,14.405-24.696,29.181-24.696c14.776,0,27.022,10.694,29.471,24.736
	c0.163,0.898,1.643,1.903,2.541,1.903h1.943c4.653,0,8.742-4.189,8.742-8.76v-6.041C254,160.409,253.037,159.596,252.057,159.596z
	 M192.807,125.6h-39.824c-0.98,0-1.943-0.963-1.943-1.943V98.58c0-0.98,0.963-2.12,1.943-2.12h12.627c0.49,0,1.48,0.539,1.888,0.865
	l26.28,25.36C194.758,123.911,194.358,125.6,192.807,125.6z M2,33.833c0,8.025,5.497,14.676,12.916,16.599v51.062H9.229v66.3
	c0,4.353,3.418,8.314,7.771,8.314h21.369c0.898,0,1.779-1.127,1.943-1.943c2.449-14.042,14.886-23.74,29.662-23.74
	s27.022,9.738,29.471,23.78c0.163,0.898,1.162,1.902,2.06,1.903h32.053v-74.614h-6.841V50.432
	c7.421-1.924,13.151-8.629,13.151-16.655v-4.134H2V33.833z M36.408,33.833c0,3.544,3.694,17.217,17.348,17.217
	c11.859,0,17.061-10.731,17.061-17.217c0,6.046,4.052,17.204,17.204,17.204c11.883,0,17.149-11.488,17.149-17.204
	c0,8.025,5.497,14.676,12.916,16.599v51.062H23.492V50.432C30.912,48.509,36.408,41.858,36.408,33.833z M122.543,8.64V2.42H19.413
	v6.22h-0.18L2,25.873h137.866L122.633,8.64H122.543z"/>
</svg>