
<svg height="800px" width="800px" version="1.1" id="Layer_1" xmlns="http://www.w3.org/2000/svg" xmlns:xlink="http://www.w3.org/1999/xlink" 
	 viewBox="0 0 512 512" xml:space="preserve">
<path style="fill:#AFAFAF;" d="M504.6,260.3c0-137-111.1-248.1-248.1-248.1S8.4,123.3,8.4,260.3s111.1,248.1,248.1,248.1
	S504.6,397.3,504.6,260.3z"/>
<g>
	<path style="fill:#FFFFFF;" d="M512,3.6H0v256h8.5c0.3-136.7,111.2-247.4,248-247.4s247.7,110.7,248.1,247.4h7.4V3.6z"/>
	<path style="fill:#FFFFFF;" d="M256.5,12.2C119.7,12.2,8.8,122.9,8.4,259.6h496.1C504.2,122.9,393.3,12.2,256.5,12.2z"/>
</g>
<path style="fill:#D3D3D3;" d="M256.5,107.6c30.6,0,55.5,23.6,55.5,76.7c0,27.1-0.1,52.2-0.3,75.3h192.9
	C504.2,122.9,393.3,12.2,256.5,12.2S8.8,122.9,8.4,259.6h193.2c-0.4-23.1-0.6-48.1-0.6-75.3C201,131.2,225.9,107.6,256.5,107.6z"/>
<path style="fill:#AFAFAF;" d="M312,184.3c0-53.1-24.8-76.7-55.5-76.7c-30.6,0-55.5,23.6-55.5,76.7v75.3h110.9v-75.3H312z"/>
<path style="fill:#4F4F4F;" d="M256.5,132.9c-25.7,0-46.5,19.8-46.5,64.2v62.4h92.9v-62.4C303,152.7,282.2,132.9,256.5,132.9z"/>
<g>
	<polygon style="fill:#AFAFAF;" points="171,102.3 133.5,102.3 131,104.8 131,129.3 90,129.3 90,134.3 133.5,134.3 136,131.8 
		136,107.3 171,107.3 	"/>
	<polygon style="fill:#AFAFAF;" points="423.6,186.3 423.6,161.8 421.1,159.3 377.7,159.3 377.7,164.3 418.6,164.3 418.6,188.8 
		421.1,191.3 458.6,191.3 458.6,186.3 	"/>
</g>
<path style="fill:#DD2234;" d="M424.7,442.6L311,259.6H201L87.7,442c44.3,41.2,103.6,66.3,168.8,66.3
	C321.4,508.4,380.5,483.4,424.7,442.6z"/>
<g>
	<path style="fill:#A80528;" d="M424.7,442.6L311,259.6h-8.5l117.1,187.6C421.3,445.7,423,444.2,424.7,442.6z"/>
	<path style="fill:#A80528;" d="M201,259.6L87.7,442c1.8,1.6,3.6,3.2,5.4,4.8l116.4-187.2H201z"/>
</g>
<ellipse style="fill:#AF8A3F;" cx="156.8" cy="277.9" rx="19.2" ry="10"/>
<path style="fill:#C19A44;" d="M161,177c0-1-2.2-1.9-4.8-1.9l0,0c-2.7,0-4.8,0.8-4.8,1.9v99.9c0,1,2.2,1.9,4.8,1.9l0,0
	c2.7,0,4.8-0.8,4.8-1.9V177z"/>
<path style="fill:#A80528;" d="M105.1,292.5c-12.9,0-26-7-26-13.8c0-1.9,1.6-3.5,3.5-3.5c1.8,0,3.4,1.4,3.5,3.2
	c1.1,2.3,11.8,9,24.7,6.5c15.5-2.9,41.6-20.6,41.6-106c0-1.9,1.6-3.5,3.5-3.5s3.5,1.6,3.5,3.5c0,40.9-6,71.4-17.9,90.7
	C129.9,288.5,115.3,292.5,105.1,292.5z"/>
<ellipse style="fill:#AF8A3F;" cx="82.8" cy="381.2" rx="19.2" ry="10"/>
<g>
	<ellipse style="fill:#C19A44;" cx="82.1" cy="277.5" rx="7.6" ry="5.9"/>
	<path style="fill:#C19A44;" d="M86.9,280.3c0-1-2.2-1.9-4.8-1.9l0,0c-2.7,0-4.8,0.9-4.8,1.9l0.2,100c0,1,2.2,1.9,4.8,1.9l0,0
		c2.7,0,4.8-0.9,4.8-1.9L86.9,280.3z"/>
	<ellipse style="fill:#C19A44;" cx="156.5" cy="176.6" rx="7.6" ry="5.9"/>
</g>
<ellipse style="fill:#AF8A3F;" cx="353.5" cy="277.9" rx="19.2" ry="10"/>
<path style="fill:#C19A44;" d="M349.3,177c0-1,2.2-1.9,4.8-1.9l0,0c2.7,0,4.8,0.8,4.8,1.9v99.9c0,1-2.2,1.9-4.8,1.9l0,0
	c-2.7,0-4.8-0.8-4.8-1.9V177z"/>
<path style="fill:#A80528;" d="M405.2,292.5c12.9,0,26-7,26-13.8c0-1.9-1.6-3.5-3.5-3.5c-1.8,0-3.4,1.4-3.5,3.2
	c-1.1,2.3-11.8,9-24.7,6.5c-15.5-2.9-41.6-20.6-41.6-106c0-1.9-1.6-3.5-3.5-3.5s-3.5,1.6-3.5,3.5c0,40.9,6,71.4,17.9,90.7
	C380.4,288.5,395,292.5,405.2,292.5z"/>
<ellipse style="fill:#AF8A3F;" cx="427.5" cy="381.2" rx="19.2" ry="10"/>
<g>
	<ellipse style="fill:#C19A44;" cx="428.2" cy="277.5" rx="7.6" ry="5.9"/>
	<path style="fill:#C19A44;" d="M423.4,280.3c0-1,2.2-1.9,4.8-1.9l0,0c2.7,0,4.8,0.9,4.8,1.9l-0.3,99.9c0,1-2.2,1.9-4.8,1.9l0,0
		c-2.7,0-4.8-0.9-4.8-1.9L423.4,280.3z"/>
	<ellipse style="fill:#C19A44;" cx="353.8" cy="176.6" rx="7.6" ry="5.9"/>
</g>
</svg>