
<svg height="800px" width="800px" version="1.1" id="_x35_" xmlns="http://www.w3.org/2000/svg" xmlns:xlink="http://www.w3.org/1999/xlink" 
	 viewBox="0 0 512 512"  xml:space="preserve">
<g>
	<g>
		<path style="fill:#F7F7F7;" d="M139.715,0v512H61.471c0,0-5.206-16.5,0-20.827c0.22-0.147,0.513-0.367,0.807-0.441
			c7.773-3.593,48.105,0.734,53.972-12.612c6.087-13.932,1.687-92.178,0.88-113.884c-0.88-21.705-4.4-40.845-13.933-44.365
			c-9.533-3.446-68.711,0.88-96.504-62.551C-21.1,193.815,46.658,0,46.658,0H139.715z"/>
		<path style="fill:#F4E0E0;" d="M264.012,257.32c-27.793,63.431-86.898,59.105-96.431,62.551
			c-9.606,3.52-13.053,22.659-13.933,44.365c-0.88,21.707-5.207,99.952,0.88,113.884c6.087,13.933,49.499,8.653,54.779,13.053
			c5.207,4.327,0,20.827,0,20.827h-78.245V0h92.984c0,0,3.593,10.193,8.727,26.619C250.079,81.984,285.498,208.335,264.012,257.32z"
			/>
	</g>
	<g>
		<path style="opacity:0.77;fill:#FFFFFF;" d="M135.397,8.657v300.878H98.144c-20.24-2.567-58.665-8.946-79.124-55.732
			c-10.633-24.2-7.114-75.018,10.046-146.957c10.56-44.146,23.393-83.67,28.232-98.19H135.397z"/>
		<path style="opacity:0.77;fill:#FFFFFF;" d="M251.7,253.803c-20.459,46.785-58.884,53.165-79.051,55.732h-37.252V8.657h78.098
			c4.84,14.52,17.599,54.044,28.159,98.19C258.887,178.785,262.333,229.603,251.7,253.803z"/>
	</g>
	<g>
		<path style="fill:#9C446A;" d="M245.906,252.796c-20.234,46.141-58.743,50.939-77.252,53.244
			c-4.41,0.553-14.496,2.741-31.812,2.741c-19.022,0-30.598-2.221-34.76-2.741c-18.507-2.305-57.017-7.103-77.251-53.244
			c-6.607-15.08-7.458-41.037-2.651-76.4c1,0.049,2.048,0.074,3.13,0.074c28.831,0,28.831-18.169,57.67-18.169
			c28.831,0,28.831,18.169,57.662,18.169c28.839,0,28.839-18.169,57.669-18.169c26.106,0,28.583,14.882,50.196,17.715
			C253.371,211.57,252.538,237.659,245.906,252.796z"/>
		<path style="fill:#873751;" d="M245.906,252.796c-20.234,46.141-58.743,50.939-77.252,53.244
			c-4.409,0.553-14.502,2.741-31.812,2.741c-0.495,0-0.991,0-1.478-0.008V176.247c1.652,0.149,3.403,0.223,5.277,0.223
			c28.839,0,28.839-18.169,57.669-18.169c26.106,0,28.583,14.882,50.196,17.715C253.371,211.57,252.538,237.659,245.906,252.796z"/>
	</g>
</g>
</svg>